<svg width="41" height="37" viewBox="0 0 41 37" fill="none" xmlns="http://www.w3.org/2000/svg">
<path d="M20.25 0.5C15.357 0.5 11.3906 4.46633 11.3906 9.35938C11.3906 13.3152 17.1809 20.525 19.3992 23.142C19.8485 23.6722 20.6522 23.6722 21.1008 23.142C23.3191 20.525 29.1094 13.3152 29.1094 9.35938C29.1094 4.46633 25.143 0.5 20.25 0.5ZM20.25 12.3125C18.6188 12.3125 17.2969 10.9906 17.2969 9.35938C17.2969 7.72813 18.6188 6.40625 20.25 6.40625C21.8813 6.40625 23.2031 7.72813 23.2031 9.35938C23.2031 10.9906 21.8813 12.3125 20.25 12.3125ZM1.41469 15.684C0.997157 15.851 0.639232 16.1392 0.387077 16.5116C0.134922 16.8839 9.9999e-05 17.3233 0 17.773L0 35.3736C0 36.1695 0.803672 36.7138 1.54266 36.4184L11.25 32V15.6116C10.6284 14.488 10.1201 13.3939 9.75586 12.3477L1.41469 15.684ZM20.25 25.7893C19.2607 25.7893 18.3248 25.3548 17.6829 24.5968C16.3005 22.9655 14.8303 21.1079 13.5 19.2024V31.9993L27 36.4993V19.2031C25.6697 21.1079 24.2002 22.9662 22.8171 24.5975C22.1752 25.3548 21.2393 25.7893 20.25 25.7893ZM38.9573 11.8316L29.25 16.25V36.5L39.0853 32.566C39.5029 32.3991 39.8609 32.1109 40.113 31.7385C40.3652 31.3661 40.5 30.9267 40.5 30.477V12.8764C40.5 12.0805 39.6963 11.5363 38.9573 11.8316Z" fill="white"/>
</svg>
