<svg width="30" height="30" viewBox="0 0 30 30" fill="none" xmlns="http://www.w3.org/2000/svg">
<path d="M27.2483 8.12145C27.4765 8.12145 27.6616 8.02929 27.6616 7.91561C27.6616 7.80193 27.4765 7.70978 27.2483 7.70978C27.02 7.70978 26.835 7.80193 26.835 7.91561C26.835 8.02929 27.02 8.12145 27.2483 8.12145Z" fill="white"/>
<path d="M29.1742 4.69861H18.4604C18.0068 4.69861 17.6357 5.06977 17.6357 5.5225V8.50438H19.2854V6.21801H28.3506V8.68941H20.5735V10.9552H28.3504V11.3677H20.5735V13.4277H28.3504V13.8391H20.5735V23.1973H17.6376V24.4755C17.6376 24.928 18.0088 25.2994 18.4615 25.2994H29.1762C29.6286 25.2994 30.0001 24.9283 30.0001 24.4755V5.5214C29.9981 5.06977 29.627 4.69861 29.1742 4.69861ZM23.816 19.8519C23.1341 19.8519 22.5796 19.2995 22.5796 18.6155C22.5796 17.9337 23.133 17.3791 23.816 17.3791C24.4986 17.3791 25.0532 17.9315 25.0532 18.6155C25.0532 19.2995 24.4986 19.8519 23.816 19.8519Z" fill="white"/>
<path d="M19.5919 9.4848H0V22.2195H19.5919V9.4848Z" fill="white"/>
<path d="M6.85716 23.3423L4.89789 25.3013H14.694L12.7347 23.3423H6.85716Z" fill="white"/>
</svg>
