<svg width="18" height="18" viewBox="0 0 18 18" fill="none" xmlns="http://www.w3.org/2000/svg">
<path d="M15.873 0.25H1.90476C1.39959 0.25 0.915104 0.447544 0.557892 0.799175C0.20068 1.15081 0 1.62772 0 2.125L0 15.875C0 16.3723 0.20068 16.8492 0.557892 17.2008C0.915104 17.5525 1.39959 17.75 1.90476 17.75H7.35119V11.8004H4.85119V9H7.35119V6.86562C7.35119 4.43789 8.81944 3.09687 11.0683 3.09687C12.1452 3.09687 13.2714 3.28594 13.2714 3.28594V5.66875H12.0306C10.8079 5.66875 10.4266 6.41562 10.4266 7.18164V9H13.156L12.7194 11.8004H10.4266V17.75H15.873C16.3782 17.75 16.8627 17.5525 17.2199 17.2008C17.5771 16.8492 17.7778 16.3723 17.7778 15.875V2.125C17.7778 1.62772 17.5771 1.15081 17.2199 0.799175C16.8627 0.447544 16.3782 0.25 15.873 0.25Z" fill="white"/>
</svg>
