<svg width="18" height="18" viewBox="0 0 18 18" fill="none" xmlns="http://www.w3.org/2000/svg">
<path d="M8.89284 4.50784C6.36903 4.50784 4.33332 6.51175 4.33332 8.99612C4.33332 11.4805 6.36903 13.4844 8.89284 13.4844C11.4167 13.4844 13.4524 11.4805 13.4524 8.99612C13.4524 6.51175 11.4167 4.50784 8.89284 4.50784ZM8.89284 11.9141C7.26189 11.9141 5.92856 10.6055 5.92856 8.99612C5.92856 7.38675 7.25792 6.07816 8.89284 6.07816C10.5278 6.07816 11.8571 7.38675 11.8571 8.99612C11.8571 10.6055 10.5238 11.9141 8.89284 11.9141ZM14.7024 4.32425C14.7024 4.90628 14.2262 5.37112 13.6389 5.37112C13.0476 5.37112 12.5754 4.90237 12.5754 4.32425C12.5754 3.74612 13.0516 3.27737 13.6389 3.27737C14.2262 3.27737 14.7024 3.74612 14.7024 4.32425ZM17.7222 5.38675C17.6547 3.98441 17.3293 2.74222 16.2857 1.71878C15.246 0.695343 13.9841 0.375031 12.5595 0.304718C11.0913 0.222687 6.69046 0.222687 5.22221 0.304718C3.80157 0.371124 2.53967 0.691437 1.49602 1.71487C0.452366 2.73831 0.130938 3.9805 0.0595093 5.38284C-0.0238241 6.82816 -0.0238241 11.1602 0.0595093 12.6055C0.12697 14.0078 0.452366 15.25 1.49602 16.2735C2.53967 17.2969 3.7976 17.6172 5.22221 17.6875C6.69046 17.7696 11.0913 17.7696 12.5595 17.6875C13.9841 17.6211 15.246 17.3008 16.2857 16.2735C17.3254 15.25 17.6508 14.0078 17.7222 12.6055C17.8055 11.1602 17.8055 6.83206 17.7222 5.38675ZM15.8254 14.1563C15.5159 14.9219 14.9167 15.5117 14.1349 15.8203C12.9643 16.2774 10.1865 16.1719 8.89284 16.1719C7.59919 16.1719 4.81745 16.2735 3.65078 15.8203C2.873 15.5157 2.27379 14.9258 1.9603 14.1563C1.49602 13.0039 1.60316 10.2696 1.60316 8.99612C1.60316 7.72269 1.49999 4.98441 1.9603 3.83597C2.26983 3.07034 2.86903 2.4805 3.65078 2.17191C4.82141 1.71487 7.59919 1.82034 8.89284 1.82034C10.1865 1.82034 12.9682 1.71878 14.1349 2.17191C14.9127 2.47659 15.5119 3.06644 15.8254 3.83597C16.2897 4.98831 16.1825 7.72269 16.1825 8.99612C16.1825 10.2696 16.2897 13.0078 15.8254 14.1563Z" fill="white"/>
</svg>
