<svg width="38" height="30" viewBox="0 0 38 30" fill="none" xmlns="http://www.w3.org/2000/svg">
<path d="M36.5625 24.375H22.3559C22.3125 25.5357 21.4939 26.25 20.4375 26.25H16.875C15.7799 26.25 14.9402 25.2264 14.9549 24.375H0.9375C0.421875 24.375 0 24.7969 0 25.3125V26.25C0 28.3125 1.6875 30 3.75 30H33.75C35.8125 30 37.5 28.3125 37.5 26.25V25.3125C37.5 24.7969 37.0781 24.375 36.5625 24.375ZM33.75 2.8125C33.75 1.26562 32.4844 0 30.9375 0H6.5625C5.01562 0 3.75 1.26562 3.75 2.8125V22.5H33.75V2.8125ZM30 18.75H7.5V3.75H30V18.75Z" fill="white"/>
</svg>
