<svg width="115" height="41" viewBox="0 0 115 41" fill="none" xmlns="http://www.w3.org/2000/svg">
<path d="M2.13445 4.77858L2.45012 4.95201L2.45103 4.9504L2.13445 4.77858ZM4.84278 2.05715L5.01984 2.36844L5.0211 2.36772L4.84278 2.05715ZM13.4445 2.48572L13.6596 2.19887L13.4445 2.48572ZM16.0228 6.34287V6.70001H16.4912L16.372 6.25197L16.0228 6.34287ZM11.9495 6.34287L11.6235 6.49669L11.7217 6.70001H11.9495V6.34287ZM10.6495 4.90715L10.4625 5.21272L10.466 5.21479L10.6495 4.90715ZM5.99112 5.59287L6.26076 5.83044L5.99112 5.59287ZM10.6495 12.5786L10.466 12.2709L10.4625 12.273L10.6495 12.5786ZM11.9495 11.1429V10.7857H11.7217L11.6235 10.989L11.9495 11.1429ZM16.0228 11.1429L16.372 11.2338L16.4912 10.7857H16.0228V11.1429ZM13.4445 15L13.6574 15.2884L13.6596 15.2869L13.4445 15ZM4.84278 15.4286L4.66277 15.7382L4.66508 15.7395L4.66743 15.7408L4.84278 15.4286ZM2.13445 12.7072L2.45012 12.5337L2.13445 12.7072ZM1.52056 8.74287C1.52056 7.31029 1.83343 6.04987 2.45012 4.95201L1.81878 4.60515C1.13548 5.82158 0.79834 7.20401 0.79834 8.74287H1.52056ZM2.45103 4.9504C3.06922 3.83626 3.92419 2.97794 5.01984 2.36844L4.66573 1.74587C3.45027 2.42208 2.49966 3.37804 1.81788 4.60676L2.45103 4.9504ZM5.0211 2.36772C6.13166 1.74394 7.39086 1.42858 8.80779 1.42858V0.714294C7.27805 0.714294 5.89391 1.05608 4.66447 1.74658L5.0211 2.36772ZM8.80779 1.42858C10.5462 1.42858 12.0139 1.88112 13.2293 2.77258L13.6596 2.19887C12.3039 1.20458 10.6804 0.714294 8.80779 0.714294V1.42858ZM13.2293 2.77258C14.4446 3.66387 15.2597 4.87829 15.6736 6.43376L16.372 6.25197C15.9192 4.55029 15.0154 3.19329 13.6596 2.19887L13.2293 2.77258ZM16.0228 5.98572H11.9495V6.70001H16.0228V5.98572ZM12.2754 6.18904C11.9436 5.50147 11.4629 4.96701 10.8329 4.59951L10.466 5.21479C10.9626 5.50444 11.3487 5.92712 11.6235 6.49669L12.2754 6.18904ZM10.8364 4.60162C10.2254 4.23587 9.53113 4.05715 8.76445 4.05715V4.77144C9.41333 4.77144 9.97569 4.92129 10.4625 5.21269L10.8364 4.60162ZM8.76445 4.05715C7.52877 4.05715 6.50321 4.48751 5.72148 5.35529L6.26076 5.83044C6.89458 5.12679 7.71792 4.77144 8.76445 4.77144V4.05715ZM5.72148 5.35529C4.94115 6.22154 4.56834 7.36362 4.56834 8.74287H5.29056C5.29056 7.49354 5.62553 6.53562 6.26076 5.83044L5.72148 5.35529ZM4.56834 8.74287C4.56834 10.1221 4.94115 11.2642 5.72148 12.1304L6.26076 11.6553C5.62553 10.9501 5.29056 9.99219 5.29056 8.74287H4.56834ZM5.72148 12.1304C6.50321 12.9982 7.52877 13.4286 8.76445 13.4286V12.7143C7.71792 12.7143 6.89458 12.3589 6.26076 11.6553L5.72148 12.1304ZM8.76445 13.4286C9.53113 13.4286 10.2254 13.2499 10.8364 12.8841L10.4625 12.273C9.97569 12.5644 9.41333 12.7143 8.76445 12.7143V13.4286ZM10.8329 12.8862C11.4629 12.5187 11.9436 11.9843 12.2754 11.2967L11.6235 10.989C11.3487 11.5586 10.9626 11.9813 10.466 12.2709L10.8329 12.8862ZM11.9495 11.5H16.0228V10.7857H11.9495V11.5ZM15.6736 11.052C15.2597 12.6074 14.4446 13.8219 13.2293 14.7132L13.6596 15.2869C15.0154 14.2924 15.9192 12.9354 16.372 11.2338L15.6736 11.052ZM13.2315 14.7116C12.0159 15.5897 10.5475 16.0357 8.80779 16.0357V16.75C10.6792 16.75 12.3019 16.2675 13.6574 15.2884L13.2315 14.7116ZM8.80779 16.0357C7.38948 16.0357 6.12924 15.7269 5.01814 15.1164L4.66743 15.7408C5.89633 16.416 7.27942 16.75 8.80779 16.75V16.0357ZM5.0228 15.119C3.92437 14.4943 3.06839 13.6344 2.45012 12.5337L1.81878 12.8806C2.50052 14.0942 3.45009 15.0485 4.66277 15.7382L5.0228 15.119ZM2.45012 12.5337C1.83343 11.4359 1.52056 10.1754 1.52056 8.74287H0.79834C0.79834 10.2817 1.13548 11.6642 1.81878 12.8806L2.45012 12.5337ZM20.5884 15.7072L20.4171 16.0216L20.4192 16.0227L20.5884 15.7072ZM18.3567 13.5643L18.0428 13.741L18.0449 13.7445L18.3567 13.5643ZM18.3783 7.07144L18.6901 7.25169L18.6913 7.24965L18.3783 7.07144ZM20.6317 4.90715L20.8009 5.22269L20.6317 4.90715ZM27.045 4.90715L26.8758 5.22269L27.045 4.90715ZM29.2983 7.07144L28.9854 7.24965L28.9866 7.25169L29.2983 7.07144ZM29.2767 13.5643L28.9658 13.3826L28.9649 13.384L29.2767 13.5643ZM27.0017 15.7072L26.8345 15.3906L26.8325 15.3916L27.0017 15.7072ZM25.5933 12.5143L25.3344 12.2653L25.3326 12.2672L25.3308 12.2691L25.5933 12.5143ZM25.615 8.10001L25.3488 8.34133L25.3506 8.34329L25.3525 8.34522L25.615 8.10001ZM22.04 8.10001L22.3028 8.34504L22.3062 8.34133L22.04 8.10001ZM22.0183 12.5143L21.7485 12.7516L21.7503 12.7536L21.7522 12.7556L22.0183 12.5143ZM23.795 16.1C22.6637 16.1 21.6538 15.8617 20.7575 15.3916L20.4192 16.0227C21.4296 16.5526 22.5575 16.8143 23.795 16.8143V16.1ZM20.7596 15.3927C19.8803 14.9245 19.1845 14.2572 18.6684 13.384L18.0449 13.7445C18.6266 14.7286 19.4186 15.4898 20.4171 16.0216L20.7596 15.3927ZM18.6705 13.3876C18.1718 12.5211 17.9161 11.4983 17.9161 10.3072H17.1939C17.1939 11.6018 17.4727 12.7503 18.0429 13.741L18.6705 13.3876ZM17.9161 10.3072C17.9161 9.13276 18.1779 8.11815 18.6901 7.25169L18.0666 6.89119C17.481 7.88187 17.1939 9.0244 17.1939 10.3072H17.9161ZM18.6913 7.24965C19.207 6.36383 19.9088 5.69054 20.8009 5.22269L20.4625 4.59162C19.4479 5.12376 18.6475 5.89333 18.0654 6.89322L18.6913 7.24965ZM20.8009 5.22269C21.6971 4.75262 22.707 4.51429 23.8383 4.51429V3.80001C22.6008 3.80001 21.4729 4.06169 20.4625 4.59162L20.8009 5.22269ZM23.8383 4.51429C24.9697 4.51429 25.9796 4.75262 26.8758 5.22269L27.2142 4.59162C26.2038 4.06169 25.0759 3.80001 23.8383 3.80001V4.51429ZM26.8758 5.22269C27.7679 5.69054 28.4697 6.36383 28.9854 7.24965L29.6113 6.89322C29.0292 5.89333 28.2288 5.12376 27.2142 4.59162L26.8758 5.22269ZM28.9866 7.25169C29.4988 8.11815 29.7606 9.13276 29.7606 10.3072H30.4828C30.4828 9.0244 30.1957 7.88187 29.6101 6.89119L28.9866 7.25169ZM29.7606 10.3072C29.7606 11.4798 29.4924 12.5013 28.9658 13.3826L29.5876 13.746C30.1877 12.7416 30.4828 11.5917 30.4828 10.3072H29.7606ZM28.9649 13.384C28.4505 14.2544 27.7424 14.9215 26.8345 15.3906L27.1689 16.0237C28.1966 15.4928 29.0051 14.7313 29.5884 13.7445L28.9649 13.384ZM26.8325 15.3916C25.9363 15.8617 24.9264 16.1 23.795 16.1V16.8143C25.0326 16.8143 26.1605 16.5526 27.1709 16.0227L26.8325 15.3916ZM23.795 13.6429C24.6033 13.6429 25.2974 13.3444 25.8559 12.7595L25.3308 12.2691C24.9071 12.7128 24.4023 12.9286 23.795 12.9286V13.6429ZM25.8523 12.7633C26.4429 12.1624 26.7128 11.3253 26.7128 10.3072H25.9906C25.9906 11.2033 25.7549 11.8376 25.3344 12.2653L25.8523 12.7633ZM26.7128 10.3072C26.7128 9.29161 26.4516 8.4559 25.8775 7.85479L25.3525 8.34522C25.7607 8.77269 25.9906 9.4084 25.9906 10.3072H26.7128ZM25.8812 7.85869C25.3359 7.27033 24.647 6.97144 23.8383 6.97144V7.68572C24.4453 7.68572 24.9408 7.90112 25.3488 8.34133L25.8812 7.85869ZM23.8383 6.97144C23.0177 6.97144 22.3207 7.26862 21.7738 7.85869L22.3062 8.34133C22.7127 7.90283 23.2146 7.68572 23.8383 7.68572V6.97144ZM21.7773 7.85501C21.2154 8.44444 20.9639 9.2824 20.9639 10.3072H21.6861C21.6861 9.38904 21.9114 8.75558 22.3028 8.34501L21.7773 7.85501ZM20.9639 10.3072C20.9639 11.3176 21.208 12.1502 21.7485 12.7516L22.2882 12.277C21.9043 11.8498 21.6861 11.211 21.6861 10.3072H20.9639ZM21.7522 12.7556C22.2975 13.344 22.9864 13.6429 23.795 13.6429V12.9286C23.1881 12.9286 22.6925 12.7132 22.2846 12.273L21.7522 12.7556ZM51.0888 5.55001L50.8296 5.79844L50.8317 5.80051L51.0888 5.55001ZM52.4322 16.2857V16.6429H52.7933V16.2857H52.4322ZM48.7488 16.2857H48.3877V16.6429H48.7488V16.2857ZM48.1205 8.01429L47.8565 8.25797L47.8609 8.26247L47.8652 8.26683L48.1205 8.01429ZM44.7188 8.01429L44.4592 7.76608V7.76622L44.7188 8.01429ZM44.1122 16.2857V16.6429H44.4733V16.2857H44.1122ZM40.4288 16.2857H40.0677V16.6429H40.4288V16.2857ZM39.8005 8.01429L39.5365 8.25797L39.5409 8.26247L39.5452 8.26683L39.8005 8.01429ZM36.3988 8.01429L36.1392 7.76608V7.76622L36.3988 8.01429ZM35.7922 16.2857V16.6429H36.1533V16.2857H35.7922ZM32.0873 16.2857H31.7262V16.6429H32.0873V16.2857ZM32.0873 4.32858V3.97144H31.7262V4.32858H32.0873ZM35.7922 4.32858H36.1533V3.97144H35.7922V4.32858ZM35.7922 5.82858H35.4311V6.90826L36.0821 6.04154L35.7922 5.82858ZM37.2655 4.65001L37.4208 4.97247L37.424 4.97097L37.4269 4.96944L37.2655 4.65001ZM41.7505 4.77858L41.5765 5.0914L41.579 5.09283L41.7505 4.77858ZM43.4405 6.42858L43.1256 6.60308L43.4221 7.12708L43.746 6.61904L43.4405 6.42858ZM45.1522 4.82144L44.9713 4.51251L45.1522 4.82144ZM47.5138 4.55715C48.9381 4.55715 50.029 4.98072 50.8296 5.79844L51.3485 5.30158C50.3868 4.31929 49.0944 3.84287 47.5138 3.84287V4.55715ZM50.8317 5.80051C51.6442 6.61708 52.0711 7.76747 52.0711 9.30001H52.7933C52.7933 7.63254 52.3249 6.28294 51.3463 5.29951L50.8317 5.80051ZM52.0711 9.30001V16.2857H52.7933V9.30001H52.0711ZM52.4322 15.9286H48.7488V16.6429H52.4322V15.9286ZM49.11 16.2857V9.79287H48.3877V16.2857H49.11ZM49.11 9.79287C49.11 8.95783 48.8821 8.26222 48.3758 7.76176L47.8652 8.26683C48.1971 8.59494 48.3877 9.08504 48.3877 9.79287H49.11ZM48.3845 7.77062C47.8973 7.25426 47.2293 7.01429 46.4305 7.01429V7.72858C47.0762 7.72858 47.5351 7.91719 47.8565 8.25797L48.3845 7.77062ZM46.4305 7.01429C45.6314 7.01429 44.9593 7.25429 44.4592 7.76608L44.9785 8.26251C45.3161 7.91715 45.7852 7.72858 46.4305 7.72858V7.01429ZM44.4592 7.76622C43.9703 8.26715 43.7511 8.96112 43.7511 9.79287H44.4733C44.4733 9.08176 44.6589 8.59001 44.9788 8.26237L44.4592 7.76622ZM43.7511 9.79287V16.2857H44.4733V9.79287H43.7511ZM44.1122 15.9286H40.4288V16.6429H44.1122V15.9286ZM40.79 16.2857V9.79287H40.0677V16.2857H40.79ZM40.79 9.79287C40.79 8.95783 40.5621 8.26222 40.0558 7.76176L39.5452 8.26683C39.8771 8.59494 40.0677 9.08504 40.0677 9.79287H40.79ZM40.0645 7.77062C39.5773 7.25426 38.9093 7.01429 38.1105 7.01429V7.72858C38.7562 7.72858 39.2151 7.91719 39.5365 8.25797L40.0645 7.77062ZM38.1105 7.01429C37.3114 7.01429 36.6393 7.25429 36.1392 7.76608L36.6585 8.26251C36.9961 7.91715 37.4652 7.72858 38.1105 7.72858V7.01429ZM36.1392 7.76622C35.6503 8.26715 35.4311 8.96112 35.4311 9.79287H36.1533C36.1533 9.08176 36.3389 8.59001 36.6588 8.26237L36.1392 7.76622ZM35.4311 9.79287V16.2857H36.1533V9.79287H35.4311ZM35.7922 15.9286H32.0873V16.6429H35.7922V15.9286ZM32.4484 16.2857V4.32858H31.7262V16.2857H32.4484ZM32.0873 4.68572H35.7922V3.97144H32.0873V4.68572ZM35.4311 4.32858V5.82858H36.1533V4.32858H35.4311ZM36.0821 6.04154C36.4201 5.59147 36.8636 5.23483 37.4208 4.97247L37.1102 4.32754C36.4541 4.63662 35.9153 5.06569 35.5026 5.61562L36.0821 6.04154ZM37.4269 4.96944C37.9776 4.69726 38.607 4.55715 39.3238 4.55715V3.84287C38.5095 3.84287 37.7671 4.00276 37.1041 4.33058L37.4269 4.96944ZM39.3238 4.55715C40.1808 4.55715 40.9283 4.73826 41.5765 5.09137L41.9249 4.46579C41.1572 4.04747 40.2869 3.84287 39.3238 3.84287V4.55715ZM41.579 5.09283C42.2405 5.44608 42.7544 5.94737 43.1256 6.60308L43.7558 6.25408C43.3181 5.48122 42.7053 4.88251 41.922 4.46433L41.579 5.09283ZM43.746 6.61904C44.132 6.01383 44.6585 5.51758 45.3335 5.13037L44.9713 4.51251C44.2017 4.95387 43.5871 5.52904 43.135 6.23812L43.746 6.61904ZM45.3335 5.13037C45.9993 4.74833 46.7241 4.55715 47.5138 4.55715V3.84287C46.5995 3.84287 45.7495 4.06597 44.9713 4.51251L45.3335 5.13037ZM58.7285 6.02144H58.3674V7.24037L59.0326 6.21419L58.7285 6.02144ZM60.2235 4.67144L60.0505 4.3579L60.2235 4.67144ZM65.1635 4.90715L64.9721 5.21001L65.1635 4.90715ZM67.0702 7.05001L66.7463 7.20776L66.7481 7.21169L67.0702 7.05001ZM67.0702 13.5429L66.747 13.3832L66.7463 13.3851L67.0702 13.5429ZM65.1635 15.7072L65.3549 16.01L65.3589 16.0076L65.1635 15.7072ZM60.2235 15.9429L60.0505 16.2564L60.0534 16.258L60.2235 15.9429ZM58.7285 14.6143L59.03 14.418L58.3674 13.4216V14.6143H58.7285ZM58.7285 21.9857V22.3429H59.0896V21.9857H58.7285ZM55.0235 21.9857H54.6624V22.3429H55.0235V21.9857ZM55.0235 4.32858V3.97144H54.6624V4.32858H55.0235ZM58.7285 4.32858H59.0896V3.97144H58.7285V4.32858ZM63.2352 8.14287L62.9726 8.38829L62.9763 8.3919L62.9799 8.3954L63.2352 8.14287ZM59.4652 8.14287L59.2063 7.89379L59.2026 7.89744L59.4652 8.14287ZM59.4652 12.4714L59.2026 12.7169L59.2063 12.7205L59.4652 12.4714ZM63.2352 12.4714L63.4941 12.7205L63.4973 12.717L63.2352 12.4714ZM59.0326 6.21419C59.3583 5.71165 59.8097 5.30151 60.3965 4.98497L60.0505 4.3579C59.3662 4.72708 58.821 5.21694 58.4245 5.82869L59.0326 6.21419ZM60.3965 4.98497C60.9703 4.6754 61.6524 4.51429 62.4552 4.51429V3.80001C61.5531 3.80001 60.7478 3.98176 60.0505 4.3579L60.3965 4.98497ZM62.4552 4.51429C63.3872 4.51429 64.2232 4.74712 64.9721 5.21001L65.3549 4.60429C64.4861 4.06719 63.5161 3.80001 62.4552 3.80001V4.51429ZM64.9721 5.21001C65.7185 5.6714 66.3108 6.33283 66.7463 7.20776L67.3941 6.89226C66.9052 5.91004 66.2263 5.1429 65.3549 4.60429L64.9721 5.21001ZM66.7481 7.21169C67.1948 8.0819 67.4241 9.10329 67.4241 10.2857H68.1463C68.1463 9.01101 67.8989 7.87526 67.3923 6.88833L66.7481 7.21169ZM67.4241 10.2857C67.4241 11.468 67.1948 12.4975 66.747 13.3832L67.393 13.7026C67.8986 12.7025 68.1463 11.5606 68.1463 10.2857H67.4241ZM66.7463 13.3851C66.3104 14.2608 65.7171 14.9306 64.9681 15.4067L65.3589 16.0076C66.2277 15.4551 66.9055 14.6821 67.3941 13.7006L66.7463 13.3851ZM64.9721 15.4043C64.2232 15.8672 63.3872 16.1 62.4552 16.1V16.8143C63.5161 16.8143 64.4861 16.5471 65.3549 16.01L64.9721 15.4043ZM62.4552 16.1C61.6683 16.1 60.9844 15.9394 60.3932 15.6277L60.0534 16.258C60.7626 16.632 61.5665 16.8143 62.4552 16.8143V16.1ZM60.3965 15.6293C59.8075 15.3116 59.3554 14.9071 59.03 14.418L58.4266 14.8106C58.8238 15.4072 59.3684 15.8884 60.0505 16.2564L60.3965 15.6293ZM58.3674 14.6143V21.9857H59.0896V14.6143H58.3674ZM58.7285 21.6286H55.0235V22.3429H58.7285V21.6286ZM55.3846 21.9857V4.32858H54.6624V21.9857H55.3846ZM55.0235 4.68572H58.7285V3.97144H55.0235V4.68572ZM58.3674 4.32858V6.02144H59.0896V4.32858H58.3674ZM64.3763 10.2857C64.3763 9.3024 64.0946 8.48779 63.4905 7.89033L62.9799 8.3954C63.4157 8.82651 63.6541 9.44047 63.6541 10.2857H64.3763ZM63.4973 7.89744C62.9221 7.29587 62.1981 6.99287 61.3502 6.99287V7.70715C62.0045 7.70715 62.5372 7.93272 62.9726 8.38829L63.4973 7.89744ZM61.3502 6.99287C60.5146 6.99287 59.7934 7.29708 59.2063 7.89379L59.7241 8.39194C60.1769 7.93151 60.7125 7.70715 61.3502 7.70715V6.99287ZM59.2026 7.89744C58.6187 8.50819 58.3457 9.32608 58.3457 10.3072H59.068C59.068 9.45965 59.3005 8.83465 59.7273 8.38829L59.2026 7.89744ZM58.3457 10.3072C58.3457 11.2882 58.6187 12.1061 59.2026 12.7169L59.7273 12.226C59.3005 11.7796 59.068 11.1547 59.068 10.3072H58.3457ZM59.2063 12.7205C59.7934 13.3172 60.5146 13.6214 61.3502 13.6214V12.9072C60.7125 12.9072 60.1769 12.6828 59.7241 12.2224L59.2063 12.7205ZM61.3502 13.6214C62.1858 13.6214 62.9069 13.3172 63.4941 12.7205L62.9763 12.2224C62.5234 12.6828 61.9879 12.9072 61.3502 12.9072V13.6214ZM63.4973 12.717C64.0943 12.0938 64.3763 11.2699 64.3763 10.2857H63.6541C63.6541 11.1301 63.4161 11.7634 62.973 12.2258L63.4973 12.717ZM81.6674 4.32858H82.0285V3.97144H81.6674V4.32858ZM81.6674 16.2857V16.6429H82.0285V16.2857H81.6674ZM77.9624 16.2857H77.6013V16.6429H77.9624V16.2857ZM77.9624 14.6572H78.3235V13.5277L77.6666 14.4518L77.9624 14.6572ZM76.424 15.9429L76.5855 16.2623L76.5883 16.2609L76.424 15.9429ZM71.8524 15.8143L71.6682 16.1217L71.6707 16.123L71.6729 16.1244L71.8524 15.8143ZM70.2057 14.0357L69.8825 14.1954L70.2057 14.0357ZM69.6207 4.32858V3.97144H69.2596V4.32858H69.6207ZM73.304 4.32858H73.6652V3.97144H73.304V4.32858ZM73.9324 12.6857L73.6684 12.9297L73.9324 12.6857ZM77.9624 4.32858V3.97144H77.6013V4.32858H77.9624ZM81.3063 4.32858V16.2857H82.0285V4.32858H81.3063ZM81.6674 15.9286H77.9624V16.6429H81.6674V15.9286ZM78.3235 16.2857V14.6572H77.6013V16.2857H78.3235ZM77.6666 14.4518C77.3286 14.9275 76.8635 15.3196 76.2594 15.6249L76.5883 16.2609C77.2842 15.909 77.8447 15.444 78.2578 14.8625L77.6666 14.4518ZM76.2623 15.6234C75.6816 15.9106 75.0302 16.0571 74.3007 16.0571V16.7714C75.1309 16.7714 75.895 16.6037 76.5855 16.2623L76.2623 15.6234ZM74.3007 16.0571C73.4304 16.0571 72.6775 15.8694 72.0315 15.5042L71.6729 16.1244C72.4424 16.5592 73.3217 16.7714 74.3007 16.7714V16.0571ZM72.0362 15.5069C71.3916 15.1298 70.8893 14.5899 70.5285 13.876L69.8825 14.1954C70.3018 15.0244 70.8972 15.6703 71.6682 16.1217L72.0362 15.5069ZM70.5285 13.876C70.1682 13.1635 69.9818 12.3132 69.9818 11.3143H69.2596C69.2596 12.4012 69.4629 13.3651 69.8825 14.1954L70.5285 13.876ZM69.9818 11.3143V4.32858H69.2596V11.3143H69.9818ZM69.6207 4.68572H73.304V3.97144H69.6207V4.68572ZM72.9429 4.32858V10.8214H73.6652V4.32858H72.9429ZM72.9429 10.8214C72.9429 11.6824 73.169 12.4018 73.6684 12.9297L74.196 12.4417C73.8576 12.0839 73.6652 11.5605 73.6652 10.8214H72.9429ZM73.6684 12.9297C74.1664 13.4561 74.8315 13.7071 75.6224 13.7071V12.9929C74.9977 12.9929 74.5358 12.801 74.196 12.4417L73.6684 12.9297ZM75.6224 13.7071C76.4251 13.7071 77.0982 13.4576 77.5976 12.9297L77.0701 12.4417C76.7317 12.7995 76.2637 12.9929 75.6224 12.9929V13.7071ZM77.5976 12.9297C78.0971 12.4018 78.3235 11.6824 78.3235 10.8214H77.6013C77.6013 11.5605 77.4084 12.0839 77.0701 12.4417L77.5976 12.9297ZM78.3235 10.8214V4.32858H77.6013V10.8214H78.3235ZM77.9624 4.68572H81.6674V3.97144H77.9624V4.68572ZM91.0667 13.1786H91.4278V12.8214H91.0667V13.1786ZM91.0667 16.2857V16.6429H91.4278V16.2857H91.0667ZM86.0401 15.3214L85.801 15.5889L85.8039 15.5915L86.0401 15.3214ZM84.9134 7.37144H85.2745V7.01429H84.9134V7.37144ZM83.4401 7.37144H83.079V7.72858H83.4401V7.37144ZM83.4401 4.32858V3.97144H83.079V4.32858H83.4401ZM84.9134 4.32858V4.68572H85.2745V4.32858H84.9134ZM84.9134 1.41429V1.05715H84.5523V1.41429H84.9134ZM88.6184 1.41429H88.9795V1.05715H88.6184V1.41429ZM88.6184 4.32858H88.2573V4.68572H88.6184V4.32858ZM91.0451 4.32858H91.4062V3.97144H91.0451V4.32858ZM91.0451 7.37144V7.72858H91.4062V7.37144H91.0451ZM88.6184 7.37144V7.01429H88.2573V7.37144H88.6184ZM88.8784 12.9429L88.6343 13.2062L88.8784 12.9429ZM90.7056 13.1786V16.2857H91.4278V13.1786H90.7056ZM91.0667 15.9286H89.1817V16.6429H91.0667V15.9286ZM89.1817 15.9286C87.8944 15.9286 86.9418 15.6209 86.2766 15.0514L85.8039 15.5915C86.6406 16.3076 87.7824 16.6429 89.1817 16.6429V15.9286ZM86.2795 15.0539C85.6371 14.4919 85.2745 13.5478 85.2745 12.1286H84.5523C84.5523 13.6523 84.9412 14.8367 85.801 15.5889L86.2795 15.0539ZM85.2745 12.1286V7.37144H84.5523V12.1286H85.2745ZM84.9134 7.01429H83.4401V7.72858H84.9134V7.01429ZM83.8012 7.37144V4.32858H83.079V7.37144H83.8012ZM83.4401 4.68572H84.9134V3.97144H83.4401V4.68572ZM85.2745 4.32858V1.41429H84.5523V4.32858H85.2745ZM84.9134 1.77144H88.6184V1.05715H84.9134V1.77144ZM88.2573 1.41429V4.32858H88.9795V1.41429H88.2573ZM88.6184 4.68572H91.0451V3.97144H88.6184V4.68572ZM90.684 4.32858V7.37144H91.4062V4.32858H90.684ZM91.0451 7.01429H88.6184V7.72858H91.0451V7.01429ZM88.2573 7.37144V12.1714H88.9795V7.37144H88.2573ZM88.2573 12.1714C88.2573 12.5755 88.3544 12.9523 88.6343 13.2062L89.1225 12.6796C89.0557 12.6192 88.9795 12.4817 88.9795 12.1714H88.2573ZM88.6343 13.2062C88.9084 13.4544 89.3103 13.5357 89.7451 13.5357V12.8214C89.3713 12.8214 89.1955 12.7457 89.1225 12.6796L88.6343 13.2062ZM89.7451 13.5357H91.0667V12.8214H89.7451V13.5357ZM104.462 11.1857V11.5429H104.784L104.821 11.2267L104.462 11.1857ZM96.0771 11.1857V10.8286H95.6871L95.7171 11.2131L96.0771 11.1857ZM96.7921 12.9L96.5415 13.1569L96.5459 13.1613L96.5506 13.1655L96.7921 12.9ZM100.302 12.3214V11.9643H100.071L99.9746 12.1714L100.302 12.3214ZM104.245 12.3214L104.595 12.4095L104.71 11.9643H104.245V12.3214ZM103.14 14.4429L102.864 14.213L102.861 14.2167L103.14 14.4429ZM101.169 15.9214L101.318 16.2466L101.169 15.9214ZM95.3405 15.7072L95.1671 16.0205L95.3405 15.7072ZM93.1738 13.5643L93.4898 13.3913L93.1738 13.5643ZM93.1522 7.05001L92.8362 6.87697L92.8344 6.88069L93.1522 7.05001ZM95.3188 4.90715L95.4921 5.22051L95.3188 4.90715ZM101.624 4.88572L101.452 5.20001L101.624 4.88572ZM103.747 6.96429L103.432 7.13776L103.434 7.14147L103.747 6.96429ZM100.735 9.15001V9.50715H101.097V9.15001H100.735ZM100.085 7.65001L100.322 7.38012L100.085 7.65001ZM96.8788 7.62858L96.6477 7.35422L96.6455 7.35612L96.643 7.35808L96.8788 7.62858ZM96.0988 9.15001L95.742 9.09629L95.6788 9.50715H96.0988V9.15001ZM104.166 10.1143C104.166 10.4423 104.145 10.7858 104.104 11.1448L104.821 11.2267C104.866 10.8428 104.888 10.472 104.888 10.1143H104.166ZM104.462 10.8286H96.0771V11.5429H104.462V10.8286ZM95.7171 11.2131C95.7796 12.0169 96.0421 12.6801 96.5415 13.1569L97.0431 12.6431C96.7048 12.3199 96.4903 11.8403 96.4372 11.1583L95.7171 11.2131ZM96.5506 13.1655C97.055 13.6143 97.67 13.8357 98.3738 13.8357V13.1214C97.8358 13.1214 97.3963 12.9572 97.0337 12.6345L96.5506 13.1655ZM98.3738 13.8357C98.887 13.8357 99.347 13.7284 99.7366 13.4946C100.128 13.2599 100.424 12.9121 100.63 12.4715L99.9746 12.1714C99.8197 12.5022 99.6135 12.733 99.3618 12.884C99.1087 13.0359 98.7851 13.1214 98.3738 13.1214V13.8357ZM100.302 12.6786H104.245V11.9643H100.302V12.6786ZM103.896 12.2333C103.707 12.9662 103.364 13.625 102.864 14.213L103.417 14.6727C103.986 14.0035 104.38 13.2481 104.595 12.4095L103.896 12.2333ZM102.861 14.2167C102.379 14.8002 101.767 15.2604 101.019 15.5963L101.318 16.2466C102.16 15.8682 102.863 15.3427 103.42 14.669L102.861 14.2167ZM101.019 15.5963C100.278 15.9299 99.4409 16.1 98.5038 16.1V16.8143C99.5312 16.8143 100.472 16.6273 101.318 16.2466L101.019 15.5963ZM98.5038 16.1C97.3725 16.1 96.3787 15.8617 95.5138 15.3938L95.1671 16.0205C96.1512 16.5527 97.2667 16.8143 98.5038 16.8143V16.1ZM95.5138 15.3938C94.6504 14.9269 93.9773 14.2618 93.4898 13.3913L92.8578 13.7373C93.4103 14.7239 94.1817 15.4874 95.1671 16.0205L95.5138 15.3938ZM93.4898 13.3913C93.0041 12.524 92.7549 11.4999 92.7549 10.3072H92.0327C92.0327 11.6002 92.3035 12.7474 92.8578 13.7373L93.4898 13.3913ZM92.7549 10.3072C92.7549 9.11283 92.9976 8.08729 93.4703 7.21933L92.8344 6.88069C92.2956 7.86987 92.0327 9.01576 92.0327 10.3072H92.7549ZM93.4681 7.22304C93.9556 6.35251 94.6287 5.6874 95.4921 5.22051L95.1455 4.59379C94.16 5.1269 93.3887 5.89037 92.8362 6.87697L93.4681 7.22304ZM95.4921 5.22051C96.3567 4.75301 97.3573 4.51429 98.5038 4.51429V3.80001C97.2529 3.80001 96.1302 4.06129 95.1455 4.59379L95.4921 5.22051ZM98.5038 4.51429C99.6218 4.51429 100.602 4.74594 101.452 5.20001L101.795 4.57144C100.826 4.05408 99.7258 3.80001 98.5038 3.80001V4.51429ZM101.452 5.20001C102.301 5.65312 102.959 6.2969 103.432 7.13772L104.063 6.79087C103.524 5.83169 102.766 5.08976 101.795 4.57144L101.452 5.20001ZM103.434 7.14147C103.918 7.97954 104.166 8.96654 104.166 10.1143H104.888C104.888 8.86204 104.617 7.74904 104.061 6.78712L103.434 7.14147ZM101.097 9.15001C101.097 8.43047 100.844 7.82722 100.322 7.38012L99.8489 7.9199C100.194 8.21565 100.374 8.6124 100.374 9.15001H101.097ZM100.322 7.38012C99.8143 6.9449 99.1852 6.73572 98.4605 6.73572V7.45001C99.0361 7.45001 99.49 7.61226 99.8489 7.9199L100.322 7.38012ZM98.4605 6.73572C97.7643 6.73572 97.1525 6.93808 96.6477 7.35422L97.1099 7.90294C97.4718 7.60479 97.9148 7.45001 98.4605 7.45001V6.73572ZM96.643 7.35808C96.1458 7.78219 95.8529 8.37379 95.742 9.09629L96.4559 9.20372C96.547 8.61194 96.7745 8.18926 97.1146 7.89908L96.643 7.35808ZM96.0988 9.50715H100.735V8.79287H96.0988V9.50715ZM110.187 6.32144H109.826V7.52283L110.489 6.51654L110.187 6.32144ZM111.812 4.77858L111.992 5.08783L111.995 5.08633L111.997 5.08483L111.812 4.77858ZM113.979 4.20001H114.34V3.84287H113.979V4.20001ZM113.979 8.07858V8.43572H114.34V8.07858H113.979ZM110.88 8.67858L111.113 8.95154L111.116 8.94947L111.118 8.94736L110.88 8.67858ZM110.187 16.2857V16.6429H110.548V16.2857H110.187ZM106.482 16.2857H106.121V16.6429H106.482V16.2857ZM106.482 4.32858V3.97144H106.121V4.32858H106.482ZM110.187 4.32858H110.548V3.97144H110.187V4.32858ZM110.489 6.51654C110.894 5.90362 111.394 5.42958 111.992 5.08783L111.631 4.46933C110.929 4.87044 110.347 5.42497 109.884 6.12633L110.489 6.51654ZM111.997 5.08483C112.589 4.73404 113.246 4.55715 113.979 4.55715V3.84287C113.122 3.84287 112.335 4.05169 111.626 4.47233L111.997 5.08483ZM113.617 4.20001V8.07858H114.34V4.20001H113.617ZM113.979 7.72144H112.96V8.43572H113.979V7.72144ZM112.96 7.72144C111.991 7.72144 111.197 7.93008 110.642 8.40979L111.118 8.94736C111.488 8.62708 112.081 8.43572 112.96 8.43572V7.72144ZM110.647 8.40562C110.063 8.89279 109.826 9.71133 109.826 10.7357H110.548C110.548 9.78869 110.772 9.23579 111.113 8.95154L110.647 8.40562ZM109.826 10.7357V16.2857H110.548V10.7357H109.826ZM110.187 15.9286H106.482V16.6429H110.187V15.9286ZM106.843 16.2857V4.32858H106.121V16.2857H106.843ZM106.482 4.68572H110.187V3.97144H106.482V4.68572ZM109.826 4.32858V6.32144H110.548V4.32858H109.826ZM4.30112 39.1143L4.16418 39.4446L4.30112 39.1143ZM2.17778 37.5286L1.88675 37.74L1.8896 37.7439L2.17778 37.5286ZM1.35445 35V34.6429H0.98272L0.993492 35.0104L1.35445 35ZM5.29778 35L5.65702 34.9636L5.62376 34.6429H5.29778V35ZM5.88278 36.2857L5.63929 36.5493L5.64254 36.5525L5.64582 36.5554L5.88278 36.2857ZM8.48279 36.35L8.70357 36.6325L8.70758 36.6296L8.71144 36.6264L8.48279 36.35ZM8.56945 34.3786L8.31411 34.6311L8.31776 34.6346L8.32151 34.6382L8.56945 34.3786ZM7.63778 33.7786L7.49237 34.1054L7.49471 34.1064L7.4971 34.1075L7.63778 33.7786ZM6.07779 33.2429L5.97122 33.5843L5.97469 33.585L6.07779 33.2429ZM2.06945 31.0143L2.35749 30.7989L2.06945 31.0143ZM2.93612 25.4429L3.15726 25.7252L3.15975 25.7233L2.93612 25.4429ZM10.9961 25.4429L10.7725 25.7233L10.775 25.7252L10.9961 25.4429ZM12.6428 28.7429V29.1H13.0226L13.0034 28.7249L12.6428 28.7429ZM8.63445 28.7429L8.27395 28.7638L8.29396 29.1H8.63445V28.7429ZM8.09278 27.6071L7.85582 27.8766L7.85929 27.8796L7.86279 27.8825L8.09278 27.6071ZM5.73112 27.5429L5.96371 27.816L5.96786 27.8126L5.97191 27.809L5.73112 27.5429ZM6.01278 29.6857L6.19713 29.3786L6.01278 29.6857ZM8.17945 30.5643L8.29515 30.2259L8.2906 30.2245L8.17945 30.5643ZM10.5628 31.5072L10.4013 31.8266L10.4043 31.8281L10.5628 31.5072ZM12.1661 32.8143L11.8807 33.0332L12.1661 32.8143ZM12.1661 37.3571L11.8609 37.1661L11.8595 37.1686L11.8581 37.1707L12.1661 37.3571ZM10.2595 39.0286L10.098 38.7093L10.2595 39.0286ZM7.29112 39.2929C6.21808 39.2929 5.26904 39.1207 4.43805 38.7839L4.16418 39.4446C5.09542 39.8221 6.13972 40.0071 7.29112 40.0071V39.2929ZM4.43805 38.7839C3.61233 38.4493 2.95847 37.9586 2.46597 37.3132L1.8896 37.7439C2.46597 38.4986 3.22768 39.065 4.16418 39.4446L4.43805 38.7839ZM2.4688 37.3172C1.99793 36.6832 1.74247 35.9129 1.71541 34.9897L0.993492 35.0104C1.02421 36.0586 1.31764 36.9739 1.88677 37.74L2.4688 37.3172ZM1.35445 35.3572H5.29778V34.6429H1.35445V35.3572ZM4.93855 35.0364C5.00297 35.6575 5.22592 36.1761 5.63929 36.5493L6.12628 36.0221C5.8752 35.7954 5.70815 35.4568 5.65702 34.9636L4.93855 35.0364ZM5.64582 36.5554C6.05709 36.9089 6.5807 37.0714 7.18279 37.0714V36.3571C6.71598 36.3571 6.37292 36.2339 6.11975 36.0161L5.64582 36.5554ZM7.18279 37.0714C7.78263 37.0714 8.30295 36.9389 8.70357 36.6325L8.262 36.0675C8.02706 36.2468 7.68072 36.3571 7.18279 36.3571V37.0714ZM8.71144 36.6264C9.12134 36.2947 9.32056 35.8389 9.32056 35.3H8.59834C8.59834 35.6468 8.47979 35.8911 8.25413 36.0736L8.71144 36.6264ZM9.32056 35.3C9.32056 34.8357 9.15358 34.4329 8.81739 34.1189L8.32151 34.6382C8.50532 34.81 8.59834 35.0214 8.59834 35.3H9.32056ZM8.82479 34.1261C8.54114 33.8454 8.18953 33.6218 7.77847 33.4496L7.4971 34.1075C7.83715 34.2496 8.10665 34.4261 8.31411 34.6311L8.82479 34.1261ZM7.7832 33.4518C7.40158 33.2857 6.86479 33.1021 6.18088 32.9007L5.97469 33.585C6.64856 33.7836 7.15177 33.9571 7.49237 34.1054L7.7832 33.4518ZM6.18435 32.9018C5.21224 32.6047 4.42967 32.311 3.83124 32.0219L3.51433 32.6638C4.15812 32.9746 4.97889 33.2811 5.97122 33.5839L6.18435 32.9018ZM3.83124 32.0219C3.26484 31.7484 2.77365 31.3433 2.35749 30.7989L1.78141 31.2297C2.2608 31.8568 2.83851 32.3374 3.51433 32.6638L3.83124 32.0219ZM2.35749 30.7989C1.96911 30.2909 1.7589 29.6088 1.7589 28.7214H1.03667C1.03667 29.7198 1.27424 30.5663 1.78141 31.2297L2.35749 30.7989ZM1.7589 28.7214C1.7589 27.4203 2.22886 26.4365 3.15726 25.7252L2.71497 25.1605C1.59226 26.0207 1.03667 27.2226 1.03667 28.7214H1.7589ZM3.15975 25.7233C4.10652 24.9847 5.35737 24.6 6.94445 24.6V23.8857C5.2382 23.8857 3.81683 24.301 2.71248 25.1624L3.15975 25.7233ZM6.94445 24.6C8.56209 24.6 9.82677 24.9855 10.7725 25.7233L11.2198 25.1624C10.1144 24.3002 8.67793 23.8857 6.94445 23.8857V24.6ZM10.775 25.7252C11.708 26.44 12.2146 27.4385 12.2821 28.7609L13.0034 28.7249C12.9265 27.2187 12.3353 26.0171 11.2173 25.1605L10.775 25.7252ZM12.6428 28.3857H8.63445V29.1H12.6428V28.3857ZM8.99495 28.7219C8.96108 28.1526 8.74362 27.6756 8.32278 27.3318L7.86279 27.8825C8.1064 28.0815 8.25005 28.3617 8.27395 28.7638L8.99495 28.7219ZM8.32975 27.3376C7.92025 26.9855 7.4049 26.8214 6.81445 26.8214V27.5357C7.264 27.5357 7.60088 27.6574 7.85582 27.8766L8.32975 27.3376ZM6.81445 26.8214C6.29795 26.8214 5.84458 26.9632 5.49033 27.2767L5.97191 27.809C6.16655 27.6368 6.43543 27.5357 6.81445 27.5357V26.8214ZM5.49853 27.2697C5.12293 27.5825 4.95834 28.0302 4.95834 28.55H5.68056C5.68056 28.1841 5.79041 27.9604 5.96371 27.816L5.49853 27.2697ZM4.95834 28.55C4.95834 29.1755 5.26915 29.6644 5.82844 29.9928L6.19713 29.3786C5.83198 29.1642 5.68056 28.8959 5.68056 28.55H4.95834ZM5.82844 29.9928C6.32612 30.2851 7.07933 30.5876 8.0683 30.9041L8.2906 30.2245C7.31513 29.9124 6.62389 29.6292 6.19713 29.3786L5.82844 29.9928ZM8.06375 30.9026C9.03756 31.2284 9.815 31.5366 10.4013 31.8266L10.7243 31.1877C10.0972 30.8776 9.28579 30.5574 8.29515 30.226L8.06375 30.9026ZM10.4043 31.8281C10.9729 32.1027 11.4648 32.5023 11.8807 33.0332L12.4515 32.5955C11.9719 31.9834 11.3949 31.5116 10.7212 31.1862L10.4043 31.8281ZM11.8807 33.0332C12.2684 33.5279 12.4767 34.1807 12.4767 35.0214H13.1989C13.1989 34.0621 12.9594 33.2436 12.4515 32.5955L11.8807 33.0332ZM12.4767 35.0214C12.4767 35.8136 12.2709 36.5254 11.8609 37.1661L12.4713 37.5482C12.9569 36.7889 13.1989 35.9436 13.1989 35.0214H12.4767ZM11.8581 37.1707C11.4645 37.8064 10.8833 38.3207 10.098 38.7093L10.4209 39.3479C11.3112 38.9079 12.0011 38.3079 12.4741 37.5436L11.8581 37.1707ZM10.098 38.7093C9.32009 39.0939 8.38821 39.2929 7.29112 39.2929V40.0071C8.47625 40.0071 9.52325 39.7918 10.4209 39.3479L10.098 38.7093ZM21.8562 36.3929H22.2173V36.0357H21.8562V36.3929ZM21.8562 39.5V39.8571H22.2173V39.5H21.8562ZM16.8295 38.5357L16.5902 38.8032L16.5932 38.8057L16.8295 38.5357ZM15.7029 30.5857H16.064V30.2286H15.7029V30.5857ZM14.2295 30.5857H13.8684V30.9429H14.2295V30.5857ZM14.2295 27.5429V27.1857H13.8684V27.5429H14.2295ZM15.7029 27.5429V27.9H16.064V27.5429H15.7029ZM15.7029 24.6286V24.2714H15.3418V24.6286H15.7029ZM19.4079 24.6286H19.769V24.2714H19.4079V24.6286ZM19.4079 27.5429H19.0468V27.9H19.4079V27.5429ZM21.8345 27.5429H22.1957V27.1857H21.8345V27.5429ZM21.8345 30.5857V30.9429H22.1957V30.5857H21.8345ZM19.4079 30.5857V30.2286H19.0468V30.5857H19.4079ZM19.6679 36.1572L19.4238 36.4204L19.6679 36.1572ZM21.4951 36.3929V39.5H22.2173V36.3929H21.4951ZM21.8562 39.1429H19.9712V39.8571H21.8562V39.1429ZM19.9712 39.1429C18.6839 39.1429 17.7313 38.8354 17.0658 38.2657L16.5932 38.8057C17.43 39.5218 18.5719 39.8571 19.9712 39.8571V39.1429ZM17.0688 38.2682C16.4264 37.7061 16.064 36.7621 16.064 35.3429H15.3418C15.3418 36.8664 15.7305 38.0511 16.5903 38.8032L17.0688 38.2682ZM16.064 35.3429V30.5857H15.3418V35.3429H16.064ZM15.7029 30.2286H14.2295V30.9429H15.7029V30.2286ZM14.5907 30.5857V27.5429H13.8684V30.5857H14.5907ZM14.2295 27.9H15.7029V27.1857H14.2295V27.9ZM16.064 27.5429V24.6286H15.3418V27.5429H16.064ZM15.7029 24.9857H19.4079V24.2714H15.7029V24.9857ZM19.0468 24.6286V27.5429H19.769V24.6286H19.0468ZM19.4079 27.9H21.8345V27.1857H19.4079V27.9ZM21.4734 27.5429V30.5857H22.1957V27.5429H21.4734ZM21.8345 30.2286H19.4079V30.9429H21.8345V30.2286ZM19.0468 30.5857V35.3857H19.769V30.5857H19.0468ZM19.0468 35.3857C19.0468 35.7896 19.1438 36.1664 19.4238 36.4204L19.9119 35.8939C19.8453 35.8336 19.769 35.6961 19.769 35.3857H19.0468ZM19.4238 36.4204C19.6976 36.6686 20.0997 36.75 20.5345 36.75V36.0357C20.1605 36.0357 19.9848 35.96 19.9119 35.8939L19.4238 36.4204ZM20.5345 36.75H21.8562V36.0357H20.5345V36.75ZM26.2166 38.9214L26.0454 39.2357L26.0474 39.2368L26.2166 38.9214ZM23.985 36.7786L23.6711 36.9554L23.6732 36.9589L23.985 36.7786ZM24.0066 30.2857L24.3184 30.466L24.3196 30.4639L24.0066 30.2857ZM26.26 28.1214L26.4291 28.437L26.26 28.1214ZM32.6733 28.1214L32.5041 28.437L32.6733 28.1214ZM34.9266 30.2857L34.6137 30.4639L34.6149 30.466L34.9266 30.2857ZM34.905 36.7786L34.594 36.5968L34.5932 36.5982L34.905 36.7786ZM32.63 38.9214L32.4627 38.605L32.4608 38.6061L32.63 38.9214ZM31.2216 35.7286L30.9627 35.4796L30.9609 35.4814L30.9591 35.4832L31.2216 35.7286ZM31.2433 31.3143L30.9771 31.5556L30.9789 31.5576L30.9807 31.5595L31.2433 31.3143ZM27.6683 31.3143L27.931 31.5593L27.9345 31.5556L27.6683 31.3143ZM27.6466 35.7286L27.3767 35.9657L27.3785 35.9679L27.3804 35.97L27.6466 35.7286ZM29.4233 39.3143C28.2919 39.3143 27.282 39.0761 26.3858 38.6061L26.0474 39.2368C27.0578 39.7668 28.1857 40.0286 29.4233 40.0286V39.3143ZM26.3878 38.6071C25.5086 38.1386 24.8128 37.4714 24.2967 36.5982L23.6732 36.9589C24.2549 37.9429 25.0469 38.7043 26.0454 39.2357L26.3878 38.6071ZM24.2988 36.6018C23.8 35.7354 23.5444 34.7125 23.5444 33.5214H22.8222C22.8222 34.8161 23.101 35.9646 23.6711 36.9554L24.2988 36.6018ZM23.5444 33.5214C23.5444 32.347 23.8062 31.3324 24.3184 30.466L23.6949 30.1055C23.1093 31.0961 22.8222 32.2387 22.8222 33.5214H23.5444ZM24.3196 30.4639C24.8352 29.5781 25.5371 28.9048 26.4291 28.437L26.0908 27.8059C25.0762 28.338 24.2758 29.1076 23.6937 30.1075L24.3196 30.4639ZM26.4291 28.437C27.3254 27.9669 28.3353 27.7286 29.4666 27.7286V27.0143C28.2291 27.0143 27.1012 27.276 26.0908 27.8059L26.4291 28.437ZM29.4666 27.7286C30.598 27.7286 31.6078 27.9669 32.5041 28.437L32.8425 27.8059C31.832 27.276 30.7042 27.0143 29.4666 27.0143V27.7286ZM32.5041 28.437C33.3962 28.9048 34.098 29.5781 34.6137 30.4639L35.2397 30.1075C34.6575 29.1076 33.8571 28.338 32.8425 27.8059L32.5041 28.437ZM34.6149 30.466C35.127 31.3324 35.3888 32.347 35.3888 33.5214H36.111C36.111 32.2387 35.824 31.0961 35.2382 30.1055L34.6149 30.466ZM35.3888 33.5214C35.3888 34.6939 35.1205 35.7154 34.594 36.5968L35.2158 36.9604C35.816 35.9561 36.111 34.8061 36.111 33.5214H35.3888ZM34.5932 36.5982C34.0787 37.4686 33.3706 38.1357 32.4627 38.605L32.7972 39.2379C33.8248 38.7071 34.6334 37.9457 35.2166 36.9589L34.5932 36.5982ZM32.4608 38.6061C31.5645 39.0761 30.5546 39.3143 29.4233 39.3143V40.0286C30.6608 40.0286 31.7887 39.7668 32.7991 39.2368L32.4608 38.6061ZM29.4233 36.8571C30.2316 36.8571 30.9256 36.5586 31.4842 35.9739L30.9591 35.4832C30.5354 35.9271 30.0305 36.1429 29.4233 36.1429V36.8571ZM31.4805 35.9775C32.0711 35.3768 32.3411 34.5396 32.3411 33.5214H31.6188C31.6188 34.4175 31.3832 35.0518 30.9627 35.4796L31.4805 35.9775ZM32.3411 33.5214C32.3411 32.5059 32.0798 31.6702 31.5058 31.0691L30.9807 31.5595C31.389 31.987 31.6188 32.6227 31.6188 33.5214H32.3411ZM31.5095 31.073C30.9642 30.4846 30.2752 30.1857 29.4666 30.1857V30.9C30.0735 30.9 30.5691 31.1154 30.9771 31.5556L31.5095 31.073ZM29.4666 30.1857C28.6459 30.1857 27.949 30.4829 27.4021 31.073L27.9345 31.5556C28.3409 31.1171 28.8429 30.9 29.4666 30.9V30.1857ZM27.4055 31.0693C26.8436 31.6587 26.5922 32.4967 26.5922 33.5214H27.3144C27.3144 32.6033 27.5396 31.9699 27.931 31.5593L27.4055 31.0693ZM26.5922 33.5214C26.5922 34.5318 26.8362 35.3646 27.3767 35.9657L27.9165 35.4914C27.5326 35.0639 27.3144 34.4254 27.3144 33.5214H26.5922ZM27.3804 35.97C27.9257 36.5582 28.6147 36.8571 29.4233 36.8571V36.1429C28.8163 36.1429 28.3208 35.9275 27.9128 35.4871L27.3804 35.97ZM41.4205 29.5357H41.0593V30.7371L41.7231 29.7308L41.4205 29.5357ZM43.0455 27.9929L43.226 28.3021L43.2289 28.3006L43.2314 28.2991L43.0455 27.9929ZM45.2121 27.4143H45.5732V27.0571H45.2121V27.4143ZM45.2121 31.2929V31.65H45.5732V31.2929H45.2121ZM42.1138 31.8929L42.3467 32.1658L42.3492 32.1638L42.3518 32.1616L42.1138 31.8929ZM41.4205 39.5V39.8571H41.7816V39.5H41.4205ZM37.7155 39.5H37.3543V39.8571H37.7155V39.5ZM37.7155 27.5429V27.1857H37.3543V27.5429H37.7155ZM41.4205 27.5429H41.7816V27.1857H41.4205V27.5429ZM41.7231 29.7308C42.1271 29.1179 42.628 28.6439 43.226 28.3021L42.8649 27.6836C42.1629 28.0847 41.5804 28.6393 41.1182 29.3406L41.7231 29.7308ZM43.2314 28.2991C43.8226 27.9483 44.4798 27.7714 45.2121 27.7714V27.0571C44.3556 27.0571 43.5687 27.266 42.8598 27.6866L43.2314 28.2991ZM44.851 27.4143V31.2929H45.5732V27.4143H44.851ZM45.2121 30.9357H44.1938V31.65H45.2121V30.9357ZM44.1938 30.9357C43.2246 30.9357 42.4305 31.1444 41.8762 31.6241L42.3518 32.1616C42.7219 31.8414 43.3141 31.65 44.1938 31.65V30.9357ZM41.8809 31.6199C41.2973 32.1071 41.0593 32.9257 41.0593 33.95H41.7816C41.7816 33.0029 42.0062 32.4501 42.3467 32.1658L41.8809 31.6199ZM41.0593 33.95V39.5H41.7816V33.95H41.0593ZM41.4205 39.1429H37.7155V39.8571H41.4205V39.1429ZM38.0766 39.5V27.5429H37.3543V39.5H38.0766ZM37.7155 27.9H41.4205V27.1857H37.7155V27.9ZM41.0593 27.5429V29.5357H41.7816V27.5429H41.0593ZM58.3147 34.4V34.7571H58.6368L58.6736 34.4411L58.3147 34.4ZM49.9297 34.4V34.0429H49.5397L49.5696 34.4275L49.9297 34.4ZM50.6447 36.1143L50.3941 36.3711L50.3984 36.3757L50.4031 36.3797L50.6447 36.1143ZM54.1547 35.5357V35.1786H53.9239L53.8271 35.3857L54.1547 35.5357ZM58.098 35.5357L58.4479 35.6239L58.5628 35.1786H58.098V35.5357ZM56.993 37.6571L56.7168 37.4271L56.7135 37.4311L56.993 37.6571ZM55.0213 39.1357L55.1708 39.4607L55.0213 39.1357ZM49.193 38.9214L49.0197 39.2346L49.193 38.9214ZM47.0263 36.7786L47.3423 36.6054L47.0263 36.7786ZM47.0047 30.2643L46.6887 30.0913L46.6869 30.095L47.0047 30.2643ZM49.1713 28.1214L49.3447 28.4348L49.1713 28.1214ZM55.4763 28.1L55.3048 28.4143L55.4763 28.1ZM57.5997 30.1786L57.2841 30.352L57.2862 30.3558L57.5997 30.1786ZM54.588 32.3643V32.7214H54.9491V32.3643H54.588ZM53.938 30.8643L54.1745 30.5944L53.938 30.8643ZM50.7313 30.8429L50.5002 30.5685L50.4981 30.5704L50.4955 30.5724L50.7313 30.8429ZM49.9513 32.3643L49.5946 32.3106L49.5314 32.7214H49.9513V32.3643ZM58.0186 33.3286C58.0186 33.6564 57.998 34 57.9561 34.3589L58.6736 34.4411C58.7184 34.0571 58.7408 33.6864 58.7408 33.3286H58.0186ZM58.3147 34.0429H49.9297V34.7571H58.3147V34.0429ZM49.5696 34.4275C49.6321 35.2311 49.8947 35.8943 50.3941 36.3711L50.8956 35.8575C50.5573 35.5343 50.3428 35.0546 50.2897 34.3725L49.5696 34.4275ZM50.4031 36.3797C50.9076 36.8286 51.5225 37.05 52.2263 37.05V36.3357C51.6883 36.3357 51.2488 36.1714 50.8863 35.8489L50.4031 36.3797ZM52.2263 37.05C52.7395 37.05 53.1995 36.9425 53.5892 36.7089C53.9803 36.4743 54.2764 36.1264 54.4826 35.6857L53.8271 35.3857C53.6722 35.7164 53.466 35.9471 53.2147 36.0982C52.9612 36.2504 52.6376 36.3357 52.2263 36.3357V37.05ZM54.1547 35.8929H58.098V35.1786H54.1547V35.8929ZM57.7481 35.4475C57.5596 36.1804 57.2165 36.8393 56.7168 37.4271L57.2696 37.8871C57.8384 37.2179 58.2323 36.4625 58.4479 35.6239L57.7481 35.4475ZM56.7135 37.4311C56.2311 38.0146 55.6193 38.4746 54.8718 38.8107L55.1708 39.4607C56.0126 39.0825 56.7153 38.5568 57.2725 37.8832L56.7135 37.4311ZM54.8718 38.8107C54.1301 39.1443 53.2934 39.3143 52.3563 39.3143V40.0286C53.3837 40.0286 54.324 39.8414 55.1708 39.4607L54.8718 38.8107ZM52.3563 39.3143C51.225 39.3143 50.2312 39.0761 49.3663 38.6082L49.0197 39.2346C50.0037 39.7668 51.1192 40.0286 52.3563 40.0286V39.3143ZM49.3663 38.6082C48.5033 38.1411 47.8298 37.4761 47.3423 36.6054L46.7104 36.9514C47.2629 37.9382 48.0342 38.7018 49.0197 39.2346L49.3663 38.6082ZM47.3423 36.6054C46.8566 35.7382 46.6075 34.7143 46.6075 33.5214H45.8852C45.8852 34.8143 46.1561 35.9618 46.7104 36.9514L47.3423 36.6054ZM46.6075 33.5214C46.6075 32.3271 46.8501 31.3016 47.3228 30.4336L46.6869 30.095C46.1481 31.0842 45.8852 32.23 45.8852 33.5214H46.6075ZM47.3207 30.4373C47.8082 29.5668 48.4816 28.9017 49.3447 28.4348L48.998 27.8081C48.0125 28.3412 47.2412 29.1047 46.6887 30.0913L47.3207 30.4373ZM49.3447 28.4348C50.2092 27.9673 51.2098 27.7286 52.3563 27.7286V27.0143C51.1055 27.0143 49.9828 27.2756 48.998 27.8081L49.3447 28.4348ZM52.3563 27.7286C53.4747 27.7286 54.4544 27.9602 55.3048 28.4143L55.6479 27.7857C54.6786 27.2684 53.5783 27.0143 52.3563 27.0143V27.7286ZM55.3048 28.4143C56.1538 28.8674 56.8117 29.5112 57.2841 30.352L57.9153 30.0051C57.3765 29.046 56.6189 28.304 55.6479 27.7857L55.3048 28.4143ZM57.2862 30.3558C57.7705 31.1938 58.0186 32.1808 58.0186 33.3286H58.7408C58.7408 32.0763 58.4692 30.9633 57.9131 30.0014L57.2862 30.3558ZM54.9491 32.3643C54.9491 31.6448 54.6963 31.0415 54.1745 30.5944L53.7015 31.1342C54.0467 31.4299 54.2269 31.8267 54.2269 32.3643H54.9491ZM54.1745 30.5944C53.6668 30.1592 53.0378 29.95 52.313 29.95V30.6643C52.8886 30.6643 53.3425 30.8265 53.7015 31.1342L54.1745 30.5944ZM52.313 29.95C51.6168 29.95 51.0051 30.1524 50.5002 30.5685L50.9625 31.1172C51.3243 30.8191 51.7674 30.6643 52.313 30.6643V29.95ZM50.4955 30.5724C49.9983 30.9965 49.7054 31.5881 49.5946 32.3106L50.3085 32.418C50.3995 31.8262 50.627 31.4035 50.9671 31.1134L50.4955 30.5724ZM49.9513 32.7214H54.588V32.0071H49.9513V32.7214Z" fill="#050B43"/>
</svg>
