<svg width="132" height="150" viewBox="0 0 132 150" fill="none" xmlns="http://www.w3.org/2000/svg">
<path d="M117.188 65.625H110.156V44.5312C110.156 19.9805 90.1758 0 65.625 0C41.0742 0 21.0938 19.9805 21.0938 44.5312V65.625H14.0625C6.29883 65.625 0 71.9238 0 79.6875V135.938C0 143.701 6.29883 150 14.0625 150H117.188C124.951 150 131.25 143.701 131.25 135.938V79.6875C131.25 71.9238 124.951 65.625 117.188 65.625ZM86.7188 65.625H44.5312V44.5312C44.5312 32.9004 53.9941 23.4375 65.625 23.4375C77.2559 23.4375 86.7188 32.9004 86.7188 44.5312V65.625Z" fill="white"/>
</svg>
