<svg width="188" height="132" viewBox="0 0 188 132" fill="none" xmlns="http://www.w3.org/2000/svg">
<path d="M182.021 60.5215L164.883 43.3828C161.367 39.8672 156.592 37.9043 151.611 37.9043H140.625V9.75C140.625 4.56445 136.436 0.375 131.25 0.375H9.375C4.18945 0.375 0 4.56445 0 9.75V108.188C0 121.137 10.4883 131.625 23.4375 131.625C31.1426 131.625 37.9102 127.846 42.1875 122.133C46.4648 127.875 53.2324 131.625 60.9375 131.625C73.8867 131.625 84.375 121.137 84.375 108.188C84.375 106.576 84.1992 105.023 83.9062 103.5H131.719C131.396 105.023 131.25 106.576 131.25 108.188C131.25 121.137 141.738 131.625 154.688 131.625C167.637 131.625 178.125 121.137 178.125 108.188C178.125 106.576 177.949 105.023 177.656 103.5H182.812C185.391 103.5 187.5 101.391 187.5 98.8125V73.7637C187.5 68.7832 185.537 64.0371 182.021 60.5215ZM23.4375 117.562C18.2812 117.562 14.0625 113.344 14.0625 108.188C14.0625 103.031 18.2812 98.8125 23.4375 98.8125C28.5938 98.8125 32.8125 103.031 32.8125 108.188C32.8125 113.344 28.5938 117.562 23.4375 117.562ZM60.9375 117.562C55.7812 117.562 51.5625 113.344 51.5625 108.188C51.5625 103.031 55.7812 98.8125 60.9375 98.8125C66.0938 98.8125 70.3125 103.031 70.3125 108.188C70.3125 113.344 66.0938 117.562 60.9375 117.562ZM140.625 51.9375H151.611C152.871 51.9375 154.043 52.4355 154.922 53.3145L167.607 66H140.625V51.9375ZM154.688 117.562C149.531 117.562 145.312 113.344 145.312 108.188C145.312 103.031 149.531 98.8125 154.688 98.8125C159.844 98.8125 164.062 103.031 164.062 108.188C164.062 113.344 159.844 117.562 154.688 117.562Z" fill="white"/>
</svg>
