<svg width="181" height="150" viewBox="0 0 181 150" fill="none" xmlns="http://www.w3.org/2000/svg">
<path d="M176.367 34.7461L157.353 4.39453C155.654 1.66992 152.637 0 149.414 0H31.0546C27.8319 0 24.8144 1.66992 23.1151 4.39453L4.10146 34.7461C-5.71299 50.4199 2.98818 72.2168 21.328 74.707C22.6464 74.8828 23.994 74.9707 25.3417 74.9707C34.0136 74.9707 41.6894 71.1621 46.9628 65.2734C52.2362 71.1621 59.9413 74.9707 68.5839 74.9707C77.2558 74.9707 84.9315 71.1621 90.205 65.2734C95.4784 71.1621 103.184 74.9707 111.826 74.9707C120.498 74.9707 128.174 71.1621 133.447 65.2734C138.75 71.1621 146.426 74.9707 155.068 74.9707C156.445 74.9707 157.764 74.8828 159.082 74.707C177.48 72.2461 186.211 50.4492 176.367 34.7461ZM155.127 84.375C152.197 84.375 149.297 83.9355 146.484 83.2617V112.5H33.9843V83.2617C31.1718 83.9062 28.2714 84.375 25.3417 84.375C23.5839 84.375 21.7968 84.2578 20.0683 84.0234C18.4276 83.7891 16.8163 83.4082 15.2636 82.9688V140.625C15.2636 145.811 19.453 150 24.6386 150H155.889C161.074 150 165.264 145.811 165.264 140.625V82.9688C163.682 83.4375 162.1 83.8184 160.459 84.0234C158.672 84.2578 156.914 84.375 155.127 84.375Z" fill="white"/>
</svg>
