<svg width="38" height="24" viewBox="0 0 38 24" fill="none" xmlns="http://www.w3.org/2000/svg">
<path d="M37.5 4.67227V2.625C37.5 1.58965 36.6604 0.75 35.625 0.75H1.875C0.839648 0.75 0 1.58965 0 2.625V4.67227C1.08984 5.05957 1.875 6.08965 1.875 7.3125C1.875 8.53535 1.08984 9.56543 0 9.95273V15.75H37.5V9.95273C36.4102 9.56543 35.625 8.53535 35.625 7.3125C35.625 6.08965 36.4102 5.05957 37.5 4.67227ZM13.125 12H9.375V4.5H13.125V12ZM20.625 12H16.875V4.5H20.625V12ZM28.125 12H24.375V4.5H28.125V12ZM0 23.25H3.75V21.6873C3.75 21.1693 4.16953 20.7498 4.6875 20.7498C5.20547 20.7498 5.625 21.1693 5.625 21.6873V23.25H13.125V21.6873C13.125 21.1693 13.5445 20.7498 14.0625 20.7498C14.5805 20.7498 15 21.1693 15 21.6873V23.25H22.5V21.6873C22.5 21.1693 22.9195 20.7498 23.4375 20.7498C23.9555 20.7498 24.375 21.1693 24.375 21.6873V23.25H31.875V21.6873C31.875 21.1693 32.2945 20.7498 32.8125 20.7498C33.3305 20.7498 33.75 21.1693 33.75 21.6873V23.25H37.5V17.625H0V23.25Z" fill="white"/>
</svg>
