<svg width="18" height="18" viewBox="0 0 18 18" fill="none" xmlns="http://www.w3.org/2000/svg">
<path d="M15.9503 4.92638C15.9616 5.10403 15.9616 5.28173 15.9616 5.45938C15.9616 10.8781 12.2956 17.1218 5.59503 17.1218C3.53073 17.1218 1.61309 16.4492 0 15.2817C0.293299 15.3198 0.575278 15.3325 0.879861 15.3325C2.58316 15.3325 4.15115 14.6853 5.40326 13.5812C3.80146 13.5431 2.4591 12.3629 1.9966 10.7386C2.22222 10.7766 2.44781 10.802 2.68472 10.802C3.01184 10.802 3.33899 10.7512 3.64354 10.6624C1.97406 10.2817 0.72191 8.63196 0.72191 6.63958V6.58884C1.20694 6.89341 1.77101 7.08376 2.36882 7.10911C1.38743 6.37306 0.744479 5.11673 0.744479 3.6954C0.744479 2.93399 0.924931 2.23603 1.2408 1.62688C3.03437 4.11419 5.73038 5.73853 8.75347 5.91622C8.69708 5.61165 8.66323 5.29442 8.66323 4.97716C8.66323 2.71825 10.2876 0.878174 12.3068 0.878174C13.3558 0.878174 14.3034 1.3731 14.9689 2.17259C15.7924 1.99493 16.582 1.65228 17.2814 1.18274C17.0106 2.13454 16.4353 2.93403 15.6796 3.44161C16.4128 3.35282 17.1235 3.12435 17.7777 2.80712C17.2815 3.61927 16.661 4.34259 15.9503 4.92638Z" fill="white"/>
</svg>
