<svg width="18" height="18" viewBox="0 0 18 18" fill="none" xmlns="http://www.w3.org/2000/svg">
<path d="M15.1151 2.79297C13.4524 1.15234 11.2381 0.25 8.88492 0.25C4.02778 0.25 0.0753968 4.14062 0.0753968 8.92188C0.0753968 10.4492 0.480159 11.9414 1.25 13.2578L0 17.75L4.67063 16.543C5.95635 17.2344 7.40476 17.5977 8.88095 17.5977H8.88492C13.7381 17.5977 17.7778 13.707 17.7778 8.92578C17.7778 6.60938 16.7778 4.43359 15.1151 2.79297ZM8.88492 16.1367C7.56746 16.1367 6.27778 15.7891 5.15476 15.1328L4.88889 14.9766L2.11905 15.6914L2.85714 13.0312L2.68254 12.7578C1.94841 11.6094 1.56349 10.2852 1.56349 8.92188C1.56349 4.94922 4.84921 1.71484 8.88889 1.71484C10.8452 1.71484 12.6825 2.46484 14.0635 3.82812C15.4444 5.19141 16.2936 7 16.2897 8.92578C16.2897 12.9023 12.9206 16.1367 8.88492 16.1367ZM12.9008 10.7383C12.6825 10.6289 11.5992 10.1055 11.3968 10.0352C11.1944 9.96094 11.0476 9.92578 10.9008 10.1445C10.754 10.3633 10.3333 10.8477 10.2024 10.9961C10.0754 11.1406 9.94444 11.1602 9.72619 11.0508C8.43254 10.4141 7.58333 9.91406 6.73016 8.47266C6.50397 8.08984 6.95635 8.11719 7.37698 7.28906C7.44841 7.14453 7.4127 7.01953 7.35714 6.91016C7.30159 6.80078 6.86111 5.73438 6.67857 5.30078C6.5 4.87891 6.31746 4.9375 6.18254 4.92969C6.05556 4.92188 5.90873 4.92188 5.7619 4.92188C5.61508 4.92188 5.37698 4.97656 5.1746 5.19141C4.97222 5.41016 4.40476 5.93359 4.40476 7C4.40476 8.06641 5.19444 9.09766 5.30159 9.24219C5.4127 9.38672 6.85317 11.5742 9.06349 12.5156C10.4603 13.1094 11.0079 13.1602 11.7063 13.0586C12.131 12.9961 13.0079 12.5352 13.1905 12.0273C13.373 11.5195 13.373 11.0859 13.3175 10.9961C13.2659 10.8984 13.119 10.8438 12.9008 10.7383Z" fill="white"/>
</svg>
