<svg width="38" height="20" viewBox="0 0 38 20" fill="none" xmlns="http://www.w3.org/2000/svg">
<path d="M28.1291 0.625H9.375C7.82925 0.624779 6.30743 1.00677 4.94502 1.73697C3.58261 2.46716 2.42189 3.5229 1.56619 4.8102C0.710495 6.09749 0.186379 7.5764 0.0405012 9.11525C-0.105376 10.6541 0.131512 12.2051 0.730077 13.6303C1.32864 15.0555 2.27031 16.3105 3.47124 17.2837C4.67218 18.2569 6.09512 18.918 7.61338 19.2083C9.13163 19.4985 10.6981 19.4088 12.1733 18.9472C13.6485 18.4856 14.9867 17.6664 16.0687 16.5625H21.4312C22.5132 17.6663 23.8512 18.4854 25.3262 18.9471C26.8012 19.4087 28.3675 19.4985 29.8856 19.2085C31.4037 18.9184 32.8266 18.2575 34.0276 17.2847C35.2285 16.3118 36.1703 15.0571 36.7691 13.6322C37.3679 12.2073 37.6052 10.6565 37.4597 9.1178C37.3143 7.57908 36.7907 6.10019 35.9355 4.81276C35.0803 3.52533 33.9201 2.4693 32.5581 1.73866C31.1962 1.00803 29.6747 0.625456 28.1291 0.625ZM14.5312 10.7031C14.5312 10.8896 14.4572 11.0684 14.3253 11.2003C14.1934 11.3322 14.0146 11.4062 13.8281 11.4062H10.7812V14.4531C10.7812 14.6396 10.7072 14.8184 10.5753 14.9503C10.4434 15.0822 10.2646 15.1562 10.0781 15.1562H8.67187C8.48539 15.1562 8.30655 15.0822 8.17469 14.9503C8.04283 14.8184 7.96875 14.6396 7.96875 14.4531V11.4062H4.92187C4.73539 11.4062 4.55655 11.3322 4.42469 11.2003C4.29283 11.0684 4.21875 10.8896 4.21875 10.7031V9.29688C4.21875 9.11039 4.29283 8.93155 4.42469 8.79969C4.55655 8.66783 4.73539 8.59375 4.92187 8.59375H7.96875V5.54688C7.96875 5.36039 8.04283 5.18155 8.17469 5.04969C8.30655 4.91783 8.48539 4.84375 8.67187 4.84375H10.0781C10.2646 4.84375 10.4434 4.91783 10.5753 5.04969C10.7072 5.18155 10.7812 5.36039 10.7812 5.54688V8.59375H13.8281C14.0146 8.59375 14.1934 8.66783 14.3253 8.79969C14.4572 8.93155 14.5312 9.11039 14.5312 9.29688V10.7031ZM27.1875 15.1562C26.7239 15.1562 26.2708 15.0188 25.8854 14.7613C25.5 14.5037 25.1995 14.1377 25.0222 13.7094C24.8448 13.2811 24.7983 12.8099 24.8888 12.3553C24.9792 11.9006 25.2024 11.483 25.5302 11.1552C25.858 10.8274 26.2756 10.6042 26.7303 10.5138C27.1849 10.4234 27.6561 10.4698 28.0844 10.6472C28.5127 10.8246 28.8787 11.125 29.1363 11.5104C29.3938 11.8958 29.5312 12.349 29.5312 12.8125C29.5312 13.4341 29.2843 14.0302 28.8448 14.4698C28.4052 14.9093 27.8091 15.1562 27.1875 15.1562ZM30.9375 9.53125C30.4739 9.53125 30.0208 9.39379 29.6354 9.13626C29.25 8.87872 28.9495 8.51268 28.7722 8.08441C28.5948 7.65615 28.5483 7.1849 28.6388 6.73026C28.7292 6.27561 28.9524 5.858 29.2802 5.53022C29.608 5.20244 30.0256 4.97922 30.4803 4.88878C30.9349 4.79835 31.4061 4.84476 31.8344 5.02216C32.2627 5.19955 32.6287 5.49995 32.8863 5.88538C33.1438 6.27081 33.2812 6.72395 33.2812 7.1875C33.2812 7.8091 33.0343 8.40524 32.5948 8.84478C32.1552 9.28432 31.5591 9.53125 30.9375 9.53125Z" fill="white"/>
</svg>
